<svg xmlns="http://www.w3.org/2000/svg" width="1024" height="1024" xmlns:v="https://vecta.io/nano"><path d="M457 526v-28h-2.248c-3.005 0 147.91-151.347 156.675-157.123 8.41-5.542 16.73-7.877 28.072-7.877 19.002 0 34.413 8.496 44.439 24.5 9.368 14.953 9.602 37.397.556 53.214C680.466 417.757 572.274 526 569.262 526c-2.242 0-2.262-.126-2.262-14v-14h-14-14v28 28h-13.5H512v-14-14h-14-14v14 14h-13.5H457zm179 14.058v-13.942l-4.018-.308-4.018-.308 26.997-26.973 26.997-26.973 4.02 3.926 4.02 3.926v9.297V498h-13.5H663v28 28h-13.5H636zM346 470.5V443h-13.5H319v14 14h-14-14v-14-14l-21.75-.01-21.75-.01 28.5-28.401c27.465-27.369 28.709-28.461 34.25-30.061 4.839-1.397 6.661-1.475 11.5-.493l5.75 1.167 43 42.897 43 42.897-19.75.007L374 471v13.5V498h-14-14zm427 14V471h-14-14v-7.705-7.705l23.382-23.545c17.687-17.81 24.768-25.679 29.07-32.306 27.324-42.086 27.324-93.394 0-135.478-7.566-11.653-26.059-30.146-37.713-37.713-42.078-27.321-93.298-27.327-135.478-.016-7.236 4.685-16.29 13.179-52.016 48.799l-43.256 43.127 11.747 11.778 11.747 11.778-39.74 39.74-39.74 39.74-44.103-43.997c-29.372-29.301-44.73-45.333-45.979-47.997-2.45-5.225-2.453-13.765-.006-19 2.77-5.926 156.516-158.894 168.586-167.734 33.078-24.224 67.754-38.608 107.05-44.404 16.537-2.439 50.566-2.456 66.45-.033 26.396 4.027 46.064 10.156 69.5 21.66 26.874 13.192 44.498 26.072 66.568 48.653 35.575 36.398 56.617 78.569 64.615 129.499 1.88 11.971 2.616 54.432 1.042 60.11-.745 2.687-.934 2.75-8.243 2.75H911v-20.5V320h-14-14v34 34h-13.5H856v14 14h-27.5H801v41 41h-14-14z" fill="#6f9e2d"/><path d="M310 926.981c-46.949-4.904-89.033-22.036-124.5-50.684-12.459-10.063-31.816-29.815-41.307-42.146-24.009-31.198-39.607-68.033-45.855-108.291-2.48-15.981-2.489-51.925-.017-67.86 6.53-42.088 22.232-78.292 48.659-112.189 3.564-4.571 27.612-29.574 53.439-55.561l46.96-47.25h21.811H291v14 14h14 14v-14-14h13.5H346v27.5V498h14 14v-13.5V471h19.826 19.826l2.385 2.538 2.385 2.538-38.203 38.203-38.203 38.203-11.772-11.742L318.469 529l-43.142 43.25c-35.724 35.814-44.115 44.757-48.805 52.011-27.271 42.187-27.285 93.546-.037 135.348 6.88 10.555 22.774 27.096 33.357 34.716 20.548 14.795 47.494 23.649 72.029 23.669 16.728.013 37.988-4.942 53.78-12.536 16.109-7.746 20.973-11.929 66.109-56.851l43.261-43.056-11.752-11.783-11.752-11.783 38.24-38.24 38.24-38.24 44.069 43.997c24.238 24.198 44.938 45.667 46.001 47.707 2.376 4.561 2.6 14.582.428 19.158-2.179 4.591-154.2 155.998-164.04 163.376-18.973 14.227-40.778 26.319-60.812 33.725-13.162 4.865-33.558 10.013-47.654 12.028-13.554 1.938-43.936 2.743-55.99 1.484zm58.798-237.912c-11.498-3.676-21.283-11.195-27.976-21.497-9.829-15.129-10.654-35.919-2.107-53.072 3.429-6.881 112.591-116.5 116.015-116.5H457v28 28h13.5H484v-14-14h14 14v14 14h13.5H539v-28-28h14 14v14c0 13.847.024 14 2.248 14 3.005 0-147.91 151.347-156.675 157.123-8.571 5.648-16.711 7.888-28.427 7.823-6.45-.036-11.534-.658-15.347-1.877zM694.5 641.08c-2.664-1.249-18.694-16.606-47.99-45.973l-43.99-44.097 12.475-12.505C627.068 526.403 627.607 526 631.735 526H636v14 14h13.5H663v-28-28h13.5H690v-9.242-9.242l7.741 7.741 7.741 7.741 19.759-19.74L745 455.519v7.741V471h14 14v13.5V498h14 14v-41-41h27.5H856v-14-14h13.5H883v-34-34h14 14v20.5V361h7.5c8.932 0 8.537-1.334 4.99 16.86-7.176 36.802-22.922 70.485-47.28 101.14-10.658 13.414-154.249 157.337-160.71 161.083-6.145 3.562-14.668 3.967-21 .997z" fill="#8f5c2a"/></svg>